<svg width="40" height="40" viewBox="0 0 40 40" fill="none" xmlns="http://www.w3.org/2000/svg">
<path d="M13.3334 36.6666C14.2539 36.6666 15.0001 35.9205 15.0001 35C15.0001 34.0795 14.2539 33.3333 13.3334 33.3333C12.4129 33.3333 11.6667 34.0795 11.6667 35C11.6667 35.9205 12.4129 36.6666 13.3334 36.6666Z" stroke="black" stroke-width="4" stroke-linecap="round" stroke-linejoin="round"/>
<path d="M31.6667 36.6666C32.5871 36.6666 33.3333 35.9205 33.3333 35C33.3333 34.0795 32.5871 33.3333 31.6667 33.3333C30.7462 33.3333 30 34.0795 30 35C30 35.9205 30.7462 36.6666 31.6667 36.6666Z" stroke="black" stroke-width="4" stroke-linecap="round" stroke-linejoin="round"/>
<path d="M3.41675 3.41669H6.75008L11.1834 24.1167C11.346 24.8748 11.7679 25.5525 12.3763 26.0331C12.9847 26.5138 13.7416 26.7673 14.5167 26.75H30.8167C31.5754 26.7488 32.3109 26.4888 32.9018 26.0131C33.4927 25.5373 33.9036 24.8742 34.0667 24.1334L36.8167 11.75H8.53341" stroke="black" stroke-width="4" stroke-linecap="round" stroke-linejoin="round"/>
</svg>
