<svg width="193" height="64" viewBox="0 0 193 64" fill="none" xmlns="http://www.w3.org/2000/svg">
<g clip-path="url(#clip0_7_14)">
<path d="M29.2817 40.5498C29.2817 41.9013 29.1073 43.093 28.7584 44.1249C28.4241 45.1567 27.9444 46.0505 27.3194 46.8062C26.7089 47.562 25.9822 48.1941 25.1391 48.7028C24.296 49.2115 23.373 49.6184 22.3701 49.9236C21.3817 50.2288 20.3278 50.4466 19.2086 50.5776C18.1039 50.7085 16.9774 50.774 15.8291 50.774C14.3174 50.774 12.922 50.6574 11.6429 50.4248C10.3638 50.207 9.15731 49.8582 8.02358 49.3786C6.90433 48.8845 5.82144 48.2523 4.77489 47.482C3.74287 46.7117 2.71085 45.7744 1.67883 44.6699L6.12667 40.1574C6.53366 41.1601 7.09331 42.0902 7.80552 42.9477C8.51779 43.7906 9.29544 44.5173 10.1385 45.1277C10.9961 45.7381 11.8827 46.2176 12.7985 46.5664C13.7142 46.9152 14.5791 47.0896 15.3931 47.0896C16.3524 47.0896 17.2536 47.0242 18.0966 46.8935C18.9397 46.7481 19.6737 46.5156 20.2988 46.1958C20.9238 45.8761 21.4107 45.4547 21.7596 44.9315C22.1229 44.3937 22.3047 43.7252 22.3047 42.9259C22.3047 42.3155 22.1666 41.7923 21.8904 41.3563C21.6143 40.9203 21.2508 40.5498 20.8002 40.2445C20.3642 39.9248 19.8627 39.6559 19.2958 39.438C18.7289 39.22 18.1475 39.0383 17.5516 38.893C16.9701 38.7331 16.396 38.595 15.8291 38.4788C15.2622 38.348 14.7608 38.2172 14.3247 38.0864C13.4671 37.8393 12.5732 37.5777 11.6429 37.3016C10.7126 37.0109 9.79689 36.6839 8.8957 36.3206C7.9945 35.9573 7.13692 35.5431 6.32289 35.078C5.52346 34.5984 4.81849 34.0389 4.20801 33.3994C3.59752 32.7454 3.11058 31.997 2.74719 31.1541C2.3838 30.2966 2.20211 29.3157 2.20211 28.2111C2.20211 26.8886 2.362 25.7187 2.68178 24.7014C3.01609 23.6695 3.48123 22.7758 4.07718 22.0201C4.67314 21.2643 5.37809 20.6321 6.19211 20.1235C7.00608 19.6003 7.90004 19.1861 8.87387 18.8809C9.84775 18.5612 10.8798 18.3359 11.97 18.2051C13.0746 18.0598 14.2011 17.9871 15.3494 17.9871C16.9193 17.9871 18.3438 18.1324 19.6229 18.4231C20.9165 18.7138 22.1084 19.128 23.1986 19.6657C24.2888 20.2034 25.2844 20.8501 26.1856 21.6059C27.1014 22.347 27.9589 23.1754 28.7584 24.091L24.3105 28.6035C23.9617 27.5572 23.4748 26.6125 22.8497 25.7696C22.2392 24.9266 21.5561 24.2073 20.8002 23.6114C20.0444 23.001 19.2522 22.536 18.4237 22.2163C17.5952 21.882 16.7957 21.7148 16.0253 21.7148C15.0224 21.7148 14.0994 21.7875 13.2564 21.9329C12.4133 22.0636 11.6865 22.2889 11.076 22.6086C10.48 22.9138 10.0149 23.3353 9.6806 23.873C9.3463 24.3962 9.17914 25.0502 9.17914 25.835C9.17914 26.4599 9.30268 26.9904 9.54976 27.4264C9.79689 27.8623 10.124 28.233 10.5309 28.5381C10.9525 28.8433 11.4248 29.0976 11.9481 29.3011C12.4714 29.49 13.0092 29.6572 13.5616 29.8025C14.1285 29.9478 14.6808 30.0787 15.2186 30.1949C15.771 30.2966 16.2725 30.4129 16.7231 30.5437C17.5952 30.7908 18.5109 31.0524 19.4703 31.3285C20.4296 31.6046 21.3744 31.9316 22.3047 32.3095C23.235 32.6728 24.1216 33.0943 24.9647 33.5739C25.8077 34.0535 26.549 34.6275 27.1886 35.296C27.8282 35.95 28.3369 36.713 28.7148 37.585C29.0927 38.4424 29.2817 39.4307 29.2817 40.5498ZM60.6347 37.4978C60.6347 39.3289 60.3584 41.0439 59.8062 42.6425C59.254 44.2412 58.4542 45.6363 57.4078 46.828C56.3614 48.0052 55.0824 48.9354 53.5706 49.6184C52.0589 50.3013 50.3437 50.643 48.4249 50.643C46.9568 50.643 45.605 50.3598 44.3695 49.7928C43.1485 49.2115 42.102 48.3249 41.2298 47.1333V61.7608H33.8604V24.963H36.6948L39.9653 30.4347C40.285 29.5191 40.7211 28.6907 41.2735 27.9496C41.8404 27.1938 42.4872 26.5544 43.2139 26.0312C43.9553 25.4934 44.7619 25.0792 45.6341 24.7886C46.5207 24.4979 47.451 24.3526 48.4249 24.3526C50.3437 24.3526 52.0589 24.6941 53.5706 25.3772C55.0824 26.0602 56.3614 26.9976 57.4078 28.1894C58.4542 29.3665 59.254 30.7544 59.8062 32.3531C60.3584 33.9517 60.6347 35.6666 60.6347 37.4978ZM53.1564 37.4978C53.1564 36.8583 53.1196 36.1826 53.0472 35.4704C52.9892 34.7438 52.88 34.0244 52.7202 33.3122C52.5605 32.6001 52.3347 31.9171 52.044 31.2631C51.7681 30.6091 51.4119 30.0351 50.9758 29.5409C50.5397 29.0323 50.0093 28.6326 49.3842 28.3419C48.7738 28.0368 48.0615 27.8841 47.2475 27.8841C46.4045 27.8841 45.6704 28.0295 45.0454 28.3201C44.4349 28.6108 43.9044 29.0104 43.4538 29.5191C43.0177 30.0132 42.6543 30.5873 42.3636 31.2413C42.0874 31.8808 41.8694 32.5565 41.7095 33.2686C41.5496 33.9808 41.4333 34.7002 41.3607 35.4268C41.3025 36.1535 41.2735 36.8438 41.2735 37.4978C41.2735 38.0791 41.3171 38.7258 41.4042 39.438C41.4915 40.1355 41.6295 40.8404 41.8185 41.5525C42.0075 42.2646 42.2546 42.955 42.5598 43.6235C42.8651 44.292 43.2358 44.8879 43.6718 45.4111C44.1224 45.9343 44.6384 46.3557 45.2198 46.6754C45.8158 46.9806 46.4917 47.1333 47.2475 47.1333C48.076 47.1333 48.7955 46.9879 49.4061 46.6972C50.0168 46.392 50.5397 45.9924 50.9758 45.4983C51.4119 44.9896 51.7681 44.4083 52.044 43.7543C52.3347 43.1003 52.5605 42.4172 52.7202 41.7051C52.88 40.993 52.9892 40.2736 53.0472 39.547C53.1196 38.8203 53.1564 38.1372 53.1564 37.4978ZM91.9875 37.4978C91.9875 38.8057 91.8134 40.0338 91.4646 41.1819C91.1153 42.33 90.6286 43.391 90.0035 44.3647C89.3932 45.3384 88.652 46.2176 87.7798 47.0024C86.9075 47.7727 85.948 48.4267 84.9016 48.9644C83.8696 49.5021 82.7578 49.9163 81.5656 50.207C80.3882 50.4977 79.1746 50.643 77.9249 50.643C76.6746 50.643 75.461 50.4977 74.2836 50.207C73.1063 49.9163 71.9939 49.5021 70.9476 48.9644C69.9156 48.4267 68.9635 47.7727 68.0913 47.0024C67.2191 46.2176 66.4709 45.3384 65.8457 44.3647C65.235 43.391 64.7557 42.33 64.4064 41.1819C64.0576 40.0193 63.8835 38.7912 63.8835 37.4978C63.8835 36.2043 64.0576 34.9836 64.4064 33.8354C64.7557 32.6728 65.235 31.6046 65.8457 30.6309C66.4709 29.6572 67.2191 28.7852 68.0913 28.0149C68.9635 27.2302 69.9156 26.5689 70.9476 26.0312C71.9939 25.4934 73.1063 25.0792 74.2836 24.7886C75.461 24.4979 76.6746 24.3526 77.9249 24.3526C79.1746 24.3526 80.3882 24.4979 81.5656 24.7886C82.7578 25.0792 83.8696 25.4934 84.9016 26.0312C85.948 26.5689 86.9075 27.2302 87.7798 28.0149C88.652 28.7852 89.3932 29.6572 90.0035 30.6309C90.6286 31.6046 91.1153 32.6728 91.4646 33.8354C91.8134 34.9836 91.9875 36.2043 91.9875 37.4978ZM84.4873 37.4978C84.4873 36.8002 84.4437 36.0663 84.3564 35.296C84.2839 34.5112 84.1529 33.7482 83.9639 33.0071C83.7754 32.2514 83.5134 31.532 83.179 30.8489C82.8595 30.1513 82.4596 29.5482 81.9798 29.0395C81.5006 28.5164 80.926 28.1021 80.2577 27.797C79.5889 27.4772 78.8115 27.3174 77.9249 27.3174C77.0814 27.3174 76.3332 27.4772 75.6788 27.797C75.0249 28.1167 74.4509 28.5454 73.9562 29.0831C73.4769 29.6063 73.0696 30.2167 72.7357 30.9143C72.4157 31.6119 72.1542 32.3385 71.9508 33.0943C71.7469 33.8354 71.6015 34.5911 71.5147 35.3614C71.4274 36.1171 71.3837 36.8293 71.3837 37.4978C71.3837 38.1663 71.4274 38.8857 71.5147 39.6559C71.6015 40.4116 71.7469 41.1674 71.9508 41.9231C72.1542 42.6789 72.4157 43.4055 72.7357 44.1031C73.0696 44.7861 73.4769 45.3965 73.9562 45.9343C74.4509 46.4574 75.0249 46.8789 75.6788 47.1986C76.3332 47.5183 77.0814 47.6782 77.9249 47.6782C78.7966 47.6782 79.5671 47.5256 80.2359 47.2204C80.9042 46.9007 81.4787 46.4792 81.958 45.956C82.4527 45.4328 82.8595 44.8297 83.179 44.1467C83.499 43.4636 83.7535 42.7442 83.9421 41.9885C84.146 41.2328 84.2839 40.4698 84.3564 39.6996C84.4437 38.9293 84.4873 38.1954 84.4873 37.4978ZM118.064 27.1866L113.922 34.0535C113.747 33.4721 113.522 32.8181 113.246 32.0915C112.969 31.3648 112.628 30.689 112.221 30.0641C111.814 29.4246 111.327 28.8942 110.76 28.4728C110.194 28.0368 109.539 27.8187 108.798 27.8187C108.115 27.8187 107.519 27.9932 107.01 28.3419C106.516 28.6907 106.094 29.1485 105.746 29.7153C105.397 30.2676 105.106 30.8997 104.873 31.6119C104.656 32.3095 104.481 33.0216 104.35 33.7482C104.234 34.4604 104.154 35.1507 104.11 35.8192C104.067 36.4732 104.045 37.04 104.045 37.5196V50.1415H96.6538V24.963H99.4878L102.475 30.8271C102.882 29.8825 103.347 29.0177 103.87 28.233C104.394 27.4336 104.997 26.7506 105.68 26.1838C106.363 25.6024 107.134 25.1519 107.991 24.8322C108.863 24.5125 109.844 24.3526 110.935 24.3526C111.501 24.3526 112.134 24.4034 112.832 24.5052C113.529 24.5924 114.212 24.7523 114.881 24.9848C115.55 25.2028 116.168 25.4934 116.734 25.8568C117.301 26.2201 117.744 26.6634 118.064 27.1866ZM159.163 50.1415H151.794V47.1333C150.922 48.3249 149.868 49.2115 148.632 49.7928C147.411 50.3598 146.067 50.643 144.599 50.643C142.68 50.643 140.965 50.3013 139.453 49.6184C137.941 48.9354 136.662 48.0052 135.616 46.828C134.569 45.6363 133.77 44.2412 133.218 42.6425C132.665 41.0439 132.389 39.3289 132.389 37.4978C132.389 35.6666 132.665 33.9517 133.218 32.3531C133.77 30.7544 134.569 29.3665 135.616 28.1894C136.662 26.9976 137.941 26.0602 139.453 25.3772C140.965 24.6941 142.68 24.3526 144.599 24.3526C145.573 24.3526 146.496 24.4979 147.368 24.7886C148.254 25.0792 149.061 25.4934 149.788 26.0312C150.529 26.5544 151.176 27.1938 151.728 27.9496C152.295 28.6907 152.739 29.5191 153.058 30.4347L156.329 24.963H159.163V50.1415ZM151.75 37.4978C151.75 36.8438 151.714 36.1535 151.641 35.4268C151.583 34.7002 151.474 33.9808 151.314 33.2686C151.154 32.5565 150.929 31.8808 150.638 31.2413C150.362 30.5873 149.999 30.0132 149.548 29.5191C149.112 29.0104 148.582 28.6108 147.957 28.3201C147.331 28.0295 146.605 27.8841 145.776 27.8841C144.947 27.8841 144.228 28.0368 143.618 28.3419C143.007 28.6326 142.484 29.0323 142.048 29.5409C141.612 30.0351 141.248 30.6091 140.957 31.2631C140.682 31.9171 140.463 32.6001 140.304 33.3122C140.144 34.0244 140.027 34.7438 139.955 35.4704C139.897 36.1826 139.867 36.8583 139.867 37.4978C139.867 38.1372 139.897 38.8203 139.955 39.547C140.027 40.2736 140.144 40.993 140.304 41.7051C140.463 42.4172 140.682 43.1003 140.957 43.7543C141.248 44.4083 141.612 44.9896 142.048 45.4983C142.484 45.9924 143.007 46.392 143.618 46.6972C144.228 46.9879 144.947 47.1333 145.776 47.1333C146.532 47.1333 147.2 46.9806 147.782 46.6754C148.378 46.3557 148.894 45.9343 149.33 45.4111C149.781 44.8879 150.158 44.292 150.464 43.6235C150.769 42.955 151.016 42.2646 151.205 41.5525C151.394 40.8404 151.532 40.1355 151.62 39.438C151.706 38.7258 151.75 38.0791 151.75 37.4978ZM191.083 35.7102C191.083 37.4106 190.873 39.1836 190.451 41.0293C190.044 42.875 189.47 44.6844 188.729 46.4574C187.987 48.2305 187.1 49.8945 186.068 51.4496C185.036 53.0192 183.903 54.3705 182.667 55.5045L179.898 53.9999C180.291 53.2737 180.661 52.4596 181.01 51.5588C181.359 50.6574 181.672 49.7056 181.948 48.7028C182.239 47.6855 182.493 46.6391 182.711 45.5637C182.943 44.4882 183.132 43.4273 183.278 42.3809C183.438 41.32 183.554 40.2954 183.626 39.3072C183.714 38.3044 183.757 37.3743 183.757 36.5168C183.757 35.95 183.735 35.3469 183.692 34.7074C183.648 34.0535 183.554 33.4067 183.409 32.7673C183.278 32.1133 183.096 31.4884 182.863 30.8925C182.631 30.2966 182.318 29.7734 181.926 29.3229C181.548 28.8724 181.083 28.5091 180.53 28.233C179.993 27.9568 179.353 27.8187 178.612 27.8187C177.885 27.8187 177.238 27.9859 176.671 28.3201C176.104 28.6399 175.603 29.0686 175.167 29.6063C174.731 30.1295 174.353 30.7326 174.033 31.4157C173.728 32.0987 173.474 32.8036 173.27 33.5303C173.081 34.2424 172.943 34.9472 172.856 35.6448C172.769 36.3424 172.725 36.9673 172.725 37.5196V50.1415H165.333V24.963H168.168L171.548 30.8271C171.955 29.8534 172.463 28.9669 173.074 28.1675C173.684 27.3682 174.375 26.6851 175.145 26.1184C175.915 25.5516 176.766 25.1156 177.696 24.8104C178.641 24.5052 179.658 24.3526 180.749 24.3526C182.493 24.3526 184.012 24.636 185.305 25.2028C186.599 25.7696 187.675 26.5616 188.532 27.5789C189.39 28.5817 190.03 29.7807 190.451 31.1759C190.873 32.5565 191.083 34.068 191.083 35.7102Z" fill="black"/>
<mask id="mask0_7_14" style="mask-type:luminance" maskUnits="userSpaceOnUse" x="97" y="0" width="57" height="57">
<path d="M125.24 56.6231L153.306 28.5616L125.24 0.500027L97.1738 28.5616L125.24 56.6231Z" fill="white"/>
</mask>
<g mask="url(#mask0_7_14)">
<path d="M125.24 56.6231L130.502 51.3614V18.765H135.765V13.8044H127.72V8.53478C127.771 8.48895 127.822 8.44152 127.871 8.39236C129.324 6.93944 129.324 4.58371 127.871 3.13082C126.418 1.67794 124.062 1.67789 122.609 3.13082C121.155 4.58376 121.155 6.93949 122.609 8.39236C122.658 8.44147 122.708 8.48904 122.759 8.53478V13.8044L114.715 13.8044V18.765H119.978V51.3614L125.24 56.6231Z" fill="#B93131"/>
</g>
<path d="M95.7558 37.74C95.7558 28.1511 87.9812 20.3778 78.3908 20.3778C68.8004 20.3778 61.0258 28.1511 61.0258 37.74C61.0258 47.3289 68.8004 55.1022 78.3908 55.1022C87.9812 55.1022 95.7558 47.3289 95.7558 37.74Z" fill="white"/>
<path d="M78.3247 22.671C78.2007 22.6705 78.0761 22.6705 77.9516 22.6731C77.4951 22.6825 77.0387 22.7141 76.5847 22.7642C76.607 22.7755 76.6214 22.7859 76.6165 22.7939L74.9162 25.4686L79.9297 28.8215L79.9213 28.8343L84.7116 28.8533L86.1916 25.7548L84.2814 23.9045C83.2053 23.4436 82.0775 23.1058 80.926 22.9021C80.0676 22.7502 79.1959 22.6742 78.3247 22.671ZM73.9755 26.363L68.9788 28.8574L68.0421 35.5315L71.525 37.8142L77.9243 34.8682L78.9335 29.6799L73.9755 26.363ZM87.2935 26.3863L85.8522 29.4043L88.3453 34.3363L92.5551 36.9749L93.3221 35.5315C93.3375 35.5412 93.3529 35.5589 93.3668 35.5824C93.3147 35.2464 93.2507 34.9114 93.1763 34.5799C92.7392 32.6409 91.9151 30.7844 90.768 29.1562C90.1528 28.2832 89.4438 27.4758 88.6589 26.7486L87.294 26.3862L87.2935 26.3863ZM66.764 27.9462C66.2957 28.4918 65.8645 29.0694 65.4795 29.6756C64.4158 31.3484 63.686 33.2358 63.3471 35.1903C63.1814 36.1425 63.109 37.1113 63.1283 38.0791L64.5021 38.4246L66.7427 35.6778L67.7241 28.6879L66.764 27.9462ZM87.9762 35.5994L84.1906 38.6344L83.9549 45.4907L86.643 46.9235L91.8789 43.5599L92.1775 38.219L92.1711 38.2297L87.9762 35.5994ZM78.4224 36.0339L72.044 38.9714L71.9617 44.1681L78.0091 48.0594L82.6853 45.5882L82.9185 38.6875L78.4224 36.0339ZM63.2131 39.408C63.2752 39.9801 63.3684 40.5485 63.495 41.1099C63.9326 43.0489 64.7581 44.9052 65.9052 46.5334C66.1682 46.9064 66.4495 47.2662 66.7447 47.6143L66.1086 44.3483L66.1171 44.3462L64.2838 39.6771L63.2131 39.408ZM71.1624 45.1622L67.667 45.7153L68.3537 49.2484C68.9352 49.7564 69.5549 50.2204 70.2063 50.6346C71.1976 51.2641 72.2638 51.7795 73.3732 52.1669L77.6212 51.2383L77.3265 49.1275L71.1624 45.1622ZM91.6774 45.1961L87.3213 47.9937L84.4724 51.2066L84.7711 51.6242C85.5868 51.2482 86.3702 50.8008 87.105 50.2869C88.7308 49.1501 90.1304 47.689 91.1942 46.0162C91.3644 45.7484 91.5241 45.4743 91.6774 45.1961ZM83.3486 51.8192L77.9263 52.472L76.165 52.8555C77.9958 53.1268 79.8766 53.0618 81.6806 52.665C82.3192 52.5241 82.9478 52.3401 83.563 52.1178L83.3486 51.8192Z" fill="black"/>
</g>
<defs>
<clipPath id="clip0_7_14">
<rect width="193" height="63" fill="white" transform="translate(0 0.5)"/>
</clipPath>
</defs>
</svg>
